<?xml version="1.0" encoding="UTF-8"?>
<!DOCTYPE svg PUBLIC "-//W3C//DTD SVG 1.1//EN" "http://www.w3.org/Graphics/SVG/1.1/DTD/svg11.dtd">
<!-- Creator: CorelDRAW -->
<svg xmlns="http://www.w3.org/2000/svg" xml:space="preserve" width="215.9mm" height="152.4mm" version="1.1" style="shape-rendering:geometricPrecision; text-rendering:geometricPrecision; image-rendering:optimizeQuality; fill-rule:evenodd; clip-rule:evenodd"
viewBox="0 0 21590 15240"
 xmlns:xlink="http://www.w3.org/1999/xlink"
 xmlns:xodm="http://www.corel.com/coreldraw/odm/2003">
 <defs>
  <style type="text/css">
   <![CDATA[
    .fil0 {fill:black}
    .fil1 {fill:white}
    .fil2 {fill:white;fill-rule:nonzero}
   ]]>
  </style>
 </defs>
 <g id="Layer_x0020_1">
  <metadata id="CorelCorpID_0Corel-Layer"/>
  <rect class="fil0" width="21590" height="15240"/>
  <g id="_18WW">
   <polygon class="fil1" points="10772.42,7295.93 10772.2,7442.17 10881.55,7327.36 10897.48,3075.93 10788.83,2958.29 "/>
   <polygon class="fil2" points="15114.83,7589.26 10897.93,7589.26 11047.55,7746.32 15259.83,7746.32 "/>
   <polygon class="fil2" points="11219.25,7961.4 10777.14,12158.3 10900.9,12292.34 11016.94,11201.29 11043.15,10954.71 11071.69,10686.44 11075.2,10653.33 11339.29,8081.36 "/>
   <polygon class="fil1" points="10233.13,8037.39 6352.78,7594.87 6492.25,7745.93 7443.42,7850.73 7521.46,7859.84 7521.46,7859.84 7833.89,7896.18 7991.5,7914.45 10112.33,8158.19 "/>
   <path class="fil1" d="M12774.55 9572.38c496.71,-496.73 816.97,-1169.88 858.84,-1917.37l-33.17 3.87c-42.68,736.86 -359.02,1400.29 -848.91,1890.26 -445.02,444.92 -1033.43,745.97 -1689.77,829.6l-3.03 33.44c666.62,-83.22 1264.42,-388.2 1716.04,-839.8z"/>
   <path class="fil1" d="M8297.9 5095.73c609.86,-609.86 1420.72,-960.53 2279.48,-988.73l-48.34 436.51c-750.17,40.26 -1425.95,360.96 -1924.19,859.19 -498.08,498.08 -818.71,1173.67 -859.17,1923.63l33.17 -3.85c41.22,-739.37 357.98,-1405.22 849.24,-1896.54 491.48,-491.41 1157.68,-808.18 1897.3,-849.26l-272.09 2456.88 337.31 354.14 -2.82 -2.9 98.88 103.85 0.06 0 1.31 1.3 0 -1.3 1.66 0.05 0 -1.17 -1.66 -1.66 0.49 -118.93 0.82 34.67 -0.49 -125.96 16.91 -4327.98 -119.77 1081.13c-882.57,26.21 -1716.59,385.36 -2343.14,1011.91 -627.09,627.1 -986.39,1462.02 -1011.97,2345.46l78.12 -9.03c27.71,-859.46 378.54,-1671.06 988.89,-2281.41z"/>
   <path class="fil1" d="M8604.87 9572.38c495.82,495.81 1167.53,815.8 1913.42,858.55l-3.51 -33.09c-735.42,-43.51 -1397.54,-359.65 -1886.67,-848.7 -448.32,-448.38 -750.6,-1042.33 -831.48,-1704.58l-33.57 -3.79c80.4,672.87 386.67,1276.47 841.81,1731.61z"/>
   <polygon class="fil1" points="10241.73,7036.07 9166.26,5952.17 10051.72,7058.19 "/>
   <path class="fil1" d="M8242.88 9934.35c623.44,623.44 1452.36,982.19 2330.16,1011.5l-8.27 -78.06c-854.07,-31.23 -1659.96,-381.57 -2266.87,-988.46 -564.41,-564.43 -906.41,-1301.08 -976.67,-2088.5l-78.87 -8.89c68.6,811.48 419.36,1571.17 1000.52,2152.41z"/>
   <polygon class="fil1" points="12223.25,9020.71 11335.99,7922.27 11146.8,7944.26 "/>
   <path class="fil1" d="M10812.97 10867.81l46.46 -436.73 0 0 3.52 -33.16 260.71 -2450.97 -432.32 -453.75 0 -0.35 -1.87 -1.94 4358.13 0 -899.13 -104.52c-25.5,-883.59 -384.79,-1718.5 -1011.97,-2345.68 -626.96,-626.96 -1461.52,-986.19 -2344.83,-1011.89l8.67 78.04c859.39,27.79 1670.87,378.6 2281.14,988.87 610.43,610.43 961.24,1422.03 988.87,2281.57l-436.65 -50.76c-40.34,-750.11 -361.01,-1425.68 -859.19,-1923.84 -498.57,-498.57 -1174.96,-819.4 -1925.83,-859.33l3.65 33.17c740.38,40.69 1407.14,357.57 1898.96,849.4 491.34,491.34 808.08,1157.33 849.24,1896.75l-2457.23 -285.75 1016.94 -1016.93 -1055.54 835.6 19.72 177.97 -432.94 454.52 0 0.14 -2.48 2.54 -0.28 -0.2 0.06 -0.14 -4358.6 0.06 900.98 104.8 78.12 9.11 0 0 261.24 30.41 208.72 24.28 2455.93 285.64 -1012.6 1012.6 1050.51 -831.59 -19.01 -178.8 425.06 -446.17 -6.2 6.2 15.72 -16.48 0 4546.43 116.03 -1091 8.29 -78.12z"/>
   <path class="fil1" d="M13081.52 9879.35c-558.22,558.22 -1284.96,898.61 -2062.57,973.98l-7.03 78.82c800.98,-74.27 1550.06,-423.22 2124.62,-997.78 625.65,-625.65 984.67,-1458.08 1011.76,-2339.26l-78.12 9.1c-29.22,857.12 -379.78,1666.24 -988.66,2275.14z"/>
  </g>
 </g>
</svg>
